<svg xmlns="http://www.w3.org/2000/svg" width="2280" height="430" viewBox="0 0 2280 430" role="img" aria-label="甘南自驾沿途天气高低温折线图，包含天气图标、降水概率和地点">
  <defs>
    <symbol id="sun" viewBox="0 0 48 48"><circle cx="24" cy="24" r="9" fill="#f7b731"/><g stroke="#f7b731" stroke-linecap="round" stroke-width="3"><path d="M24 4v6M24 38v6M4 24h6M38 24h6M10 10l4 4M34 34l4 4M38 10l-4 4M14 34l-4 4"/></g></symbol>
    <symbol id="cloud" viewBox="0 0 48 48"><circle cx="17" cy="15" r="8" fill="#f7b731"/><path d="M14 32h24a8 8 0 0 0 .9-16A12.5 12.5 0 0 0 15 13.5 9.5 9.5 0 0 0 14 32Z" fill="#dcecf4" stroke="#4f7f91" stroke-width="2.4" stroke-linejoin="round"/></symbol>
    <symbol id="rain" viewBox="0 0 48 48"><circle cx="17" cy="15" r="8" fill="#f7b731"/><path d="M17 29h21a8 8 0 0 0 .8-16A12 12 0 0 0 16.4 10 9.5 9.5 0 0 0 17 29Z" fill="#dcecf4" stroke="#2563a6" stroke-width="2.4" stroke-linejoin="round"/><path d="M19 35l-3 5M29 35l-3 5M39 35l-3 5" stroke="#2563a6" stroke-width="3" stroke-linecap="round"/></symbol>
    <symbol id="storm" viewBox="0 0 48 48"><path d="M12 30h25a8 8 0 0 0 1-16 12 12 0 0 0-23-2A9 9 0 0 0 12 30Z" fill="#dcecf4" stroke="#2563a6" stroke-width="2.4" stroke-linejoin="round"/><path d="m25 31-5 9h6l-3 7 11-12h-7l3-4Z" fill="#f7b731"/></symbol>
  </defs>
  <path fill="#fbfaf5" d="M14 8h224v408H14zM574 8h112v408H574zM798 8h224v408H798zM1246 8h448v408h-448zM2030 8h224v408h-224z"/>
  <path fill="#f1f6f3" d="M238 8h336v408H238zM686 8h112v408H686zM1022 8h224v408h-224zM1694 8h336v408h-336z"/>
  <path d="M238 8v408M574 8v408M686 8v408M798 8v408M1022 8v408M1246 8v408M1694 8v408M2030 8v408" stroke="#ced9d3" stroke-width="2"/>
  <g fill="#53625c" font-size="12" font-weight="800" text-anchor="middle">
    <text x="70" y="28">D1</text><text x="70" y="46">7/18</text><text x="182" y="28">D1</text><text x="182" y="46">7/18</text>
    <text x="294" y="28">D2</text><text x="294" y="46">7/19</text><text x="406" y="28">D2</text><text x="406" y="46">7/19</text><text x="518" y="28">D2</text><text x="518" y="46">7/19</text>
    <text x="630" y="28">D3</text><text x="630" y="46">7/20</text><text x="742" y="28">D4</text><text x="742" y="46">7/21</text>
    <text x="854" y="28">D5</text><text x="854" y="46">7/22</text><text x="966" y="28">D5</text><text x="966" y="46">7/22</text>
    <text x="1078" y="28">D6</text><text x="1078" y="46">7/23</text><text x="1190" y="28">D6</text><text x="1190" y="46">7/23</text>
    <text x="1302" y="28">D7</text><text x="1302" y="46">7/24</text><text x="1414" y="28">D7</text><text x="1414" y="46">7/24</text><text x="1526" y="28">D7</text><text x="1526" y="46">7/24</text><text x="1638" y="28">D7</text><text x="1638" y="46">7/24</text>
    <text x="1750" y="28">D8</text><text x="1750" y="46">7/25</text><text x="1862" y="28">D8</text><text x="1862" y="46">7/25</text><text x="1974" y="28">D8</text><text x="1974" y="46">7/25</text>
    <text x="2086" y="28">D9</text><text x="2086" y="46">7/26</text><text x="2198" y="28">D9</text><text x="2198" y="46">7/26</text>
  </g>
  <g>
    <use href="#rain" x="48" y="54" width="44" height="44"/><use href="#rain" x="160" y="54" width="44" height="44"/><use href="#rain" x="272" y="54" width="44" height="44"/>
    <use href="#sun" x="384" y="54" width="44" height="44"/><use href="#sun" x="496" y="54" width="44" height="44"/><use href="#rain" x="608" y="54" width="44" height="44"/>
    <use href="#rain" x="720" y="54" width="44" height="44"/><use href="#rain" x="832" y="54" width="44" height="44"/><use href="#rain" x="944" y="54" width="44" height="44"/>
    <use href="#rain" x="1056" y="54" width="44" height="44"/><use href="#sun" x="1168" y="54" width="44" height="44"/><use href="#rain" x="1280" y="54" width="44" height="44"/>
    <use href="#cloud" x="1392" y="54" width="44" height="44"/><use href="#rain" x="1504" y="54" width="44" height="44"/><use href="#rain" x="1616" y="54" width="44" height="44"/>
    <use href="#rain" x="1728" y="54" width="44" height="44"/><use href="#rain" x="1840" y="54" width="44" height="44"/><use href="#storm" x="1952" y="54" width="44" height="44"/>
    <use href="#cloud" x="2064" y="54" width="44" height="44"/><use href="#sun" x="2176" y="54" width="44" height="44"/>
  </g>
  <polyline points="70,126.8 182,110.8 294,174.7 406,148.1 518,158.7 630,148.1 742,164.1 854,164.1 966,153.4 1078,185.4 1190,158.7 1302,153.4 1414,153.4 1526,148.1 1638,142.7 1750,164.1 1862,180.1 1974,137.4 2086,105.4 2198,105.4" fill="none" stroke="#d97928" stroke-width="4" stroke-linecap="round" stroke-linejoin="round"/>
  <polyline points="70,185.4 182,164.1 294,238.7 406,222.7 518,249.3 630,222.7 742,222.7 854,222.7 966,212 1078,228 1190,228 1302,217.4 1414,217.4 1526,217.4 1638,201.4 1750,196 1862,212 1974,164.1 2086,158.7 2198,158.7" fill="none" stroke="#246bb2" stroke-width="4" stroke-linecap="round" stroke-linejoin="round"/>
  <g fill="#fff" stroke-width="3">
    <g stroke="#d97928"><circle cx="70" cy="126.8" r="5"/><circle cx="182" cy="110.8" r="5"/><circle cx="294" cy="174.7" r="5"/><circle cx="406" cy="148.1" r="5"/><circle cx="518" cy="158.7" r="5"/><circle cx="630" cy="148.1" r="5"/><circle cx="742" cy="164.1" r="5"/><circle cx="854" cy="164.1" r="5"/><circle cx="966" cy="153.4" r="5"/><circle cx="1078" cy="185.4" r="5"/><circle cx="1190" cy="158.7" r="5"/><circle cx="1302" cy="153.4" r="5"/><circle cx="1414" cy="153.4" r="5"/><circle cx="1526" cy="148.1" r="5"/><circle cx="1638" cy="142.7" r="5"/><circle cx="1750" cy="164.1" r="5"/><circle cx="1862" cy="180.1" r="5"/><circle cx="1974" cy="137.4" r="5"/><circle cx="2086" cy="105.4" r="5"/><circle cx="2198" cy="105.4" r="5"/></g>
    <g stroke="#246bb2"><circle cx="70" cy="185.4" r="5"/><circle cx="182" cy="164.1" r="5"/><circle cx="294" cy="238.7" r="5"/><circle cx="406" cy="222.7" r="5"/><circle cx="518" cy="249.3" r="5"/><circle cx="630" cy="222.7" r="5"/><circle cx="742" cy="222.7" r="5"/><circle cx="854" cy="222.7" r="5"/><circle cx="966" cy="212" r="5"/><circle cx="1078" cy="228" r="5"/><circle cx="1190" cy="228" r="5"/><circle cx="1302" cy="217.4" r="5"/><circle cx="1414" cy="217.4" r="5"/><circle cx="1526" cy="217.4" r="5"/><circle cx="1638" cy="201.4" r="5"/><circle cx="1750" cy="196" r="5"/><circle cx="1862" cy="212" r="5"/><circle cx="1974" cy="164.1" r="5"/><circle cx="2086" cy="158.7" r="5"/><circle cx="2198" cy="158.7" r="5"/></g>
  </g>
  <g fill="#a64f14" font-size="15" font-weight="900" text-anchor="middle"><text x="70" y="116.8">25°</text><text x="182" y="100.8">28°</text><text x="294" y="164.7">16°</text><text x="406" y="138.1">21°</text><text x="518" y="148.7">19°</text><text x="630" y="138.1">21°</text><text x="742" y="154.1">18°</text><text x="854" y="154.1">18°</text><text x="966" y="143.4">20°</text><text x="1078" y="175.4">14°</text><text x="1190" y="148.7">19°</text><text x="1302" y="143.4">20°</text><text x="1414" y="143.4">20°</text><text x="1526" y="138.1">21°</text><text x="1638" y="132.7">22°</text><text x="1750" y="154.1">18°</text><text x="1862" y="170.1">15°</text><text x="1974" y="127.4">23°</text><text x="2086" y="95.4">29°</text><text x="2198" y="95.4">29°</text></g>
  <g fill="#185a9d" font-size="15" font-weight="900" text-anchor="middle"><text x="70" y="207.4">14°</text><text x="182" y="186.1">18°</text><text x="294" y="260.7">4°</text><text x="406" y="244.7">7°</text><text x="518" y="271.3">2°</text><text x="630" y="244.7">7°</text><text x="742" y="244.7">7°</text><text x="854" y="244.7">7°</text><text x="966" y="234">9°</text><text x="1078" y="250">6°</text><text x="1190" y="250">6°</text><text x="1302" y="239.4">8°</text><text x="1414" y="239.4">8°</text><text x="1526" y="239.4">8°</text><text x="1638" y="223.4">11°</text><text x="1750" y="218">12°</text><text x="1862" y="234">9°</text><text x="1974" y="186.1">18°</text><text x="2086" y="180.7">19°</text><text x="2198" y="180.7">19°</text></g>
  <g fill="#246bb2" font-size="13" font-weight="800" text-anchor="middle"><text x="70" y="300">降水 75%</text><text x="182" y="300">降水 74%</text><text x="294" y="300">降水 63%</text><text x="406" y="300">降水 39%</text><text x="518" y="300">降水 39%</text><text x="630" y="300">降水 82%</text><text x="742" y="300">降水 88%</text><text x="854" y="300">降水 27%</text><text x="966" y="300">降水 26%</text><text x="1078" y="300">降水 41%</text><text x="1190" y="300">降水 59%</text><text x="1302" y="300">降水 65%</text><text x="1414" y="300">降水 57%</text><text x="1526" y="300">降水 55%</text><text x="1638" y="300">降水 43%</text><text x="1750" y="300">降水 31%</text><text x="1862" y="300">降水 85%</text><text x="1974" y="300">降水 22%</text><text x="2086" y="300">降水 20%</text><text x="2198" y="300">降水 24%</text></g>
  <g fill="#263c34" font-size="12" font-weight="800" text-anchor="middle">
    <text x="70" y="340">中川机场</text>
    <text x="182" y="340">兰州市区</text><text x="182" y="358">甘肃省博物馆 /</text><text x="182" y="376">中山桥</text>
    <text x="294" y="340">美仁大草原</text>
    <text x="406" y="340">安多合作</text><text x="406" y="358">米拉日巴佛阁</text>
    <text x="518" y="340">扎古录镇</text>
    <text x="630" y="340">达日观景台 /</text><text x="630" y="358">扎尕那</text>
    <text x="742" y="340">扎尕那仙女滩 /</text><text x="742" y="358">格尔底寺 / 纳摩大峡谷 /</text><text x="742" y="376">郎木寺镇</text>
    <text x="854" y="340">花湖湿地 /</text><text x="854" y="358">黄河九曲第一湾</text>
    <text x="966" y="340">阿坝县</text>
    <text x="1078" y="340">莲宝叶则景区 /</text><text x="1078" y="358">各莫寺</text>
    <text x="1190" y="340">久治县</text>
    <text x="1302" y="340">娘玛寺 /</text><text x="1302" y="358">阿万仓湿地</text>
    <text x="1414" y="340">郭莽湿地</text><text x="1526" y="340">桑科草原</text><text x="1638" y="340">夏河县</text>
    <text x="1750" y="340">拉卜楞寺</text><text x="1862" y="340">甘加秘境</text><text x="1974" y="340">临夏市</text>
    <text x="2086" y="340">黄洮交汇</text><text x="2086" y="358">观景平台</text><text x="2198" y="340">中川机场 T3</text>
  </g>
</svg>
