<svg xmlns="http://www.w3.org/2000/svg" width="2040" height="430" viewBox="0 0 2040 430" role="img" aria-label="甘南自驾 D1 至 D9 墨迹天气高低温折线图，包含天气图标、风力和沿途地点">
  <defs>
    <symbol id="sun" viewBox="0 0 48 48"><circle cx="24" cy="24" r="9" fill="#f7b731"/><g stroke="#f7b731" stroke-linecap="round" stroke-width="3"><path d="M24 4v6M24 38v6M4 24h6M38 24h6M10 10l4 4M34 34l4 4M38 10l-4 4M14 34l-4 4"/></g></symbol>
    <symbol id="cloud" viewBox="0 0 48 48"><circle cx="17" cy="15" r="8" fill="#f7b731"/><path d="M14 32h24a8 8 0 0 0 .9-16A12.5 12.5 0 0 0 15 13.5 9.5 9.5 0 0 0 14 32Z" fill="#dcecf4" stroke="#4f7f91" stroke-width="2.4" stroke-linejoin="round"/></symbol>
    <symbol id="rain" viewBox="0 0 48 48"><circle cx="17" cy="15" r="8" fill="#f7b731"/><path d="M17 29h21a8 8 0 0 0 .8-16A12 12 0 0 0 16.4 10 9.5 9.5 0 0 0 17 29Z" fill="#dcecf4" stroke="#2563a6" stroke-width="2.4" stroke-linejoin="round"/><path d="M19 35l-3 5M29 35l-3 5M39 35l-3 5" stroke="#2563a6" stroke-width="3" stroke-linecap="round"/></symbol>
    <style>
      .day{font:800 12px -apple-system,BlinkMacSystemFont,"PingFang SC",sans-serif;fill:#53625c;text-anchor:middle}.meta{font:600 11px -apple-system,BlinkMacSystemFont,"PingFang SC",sans-serif;fill:#6d7b75;text-anchor:middle}.place{font:700 11px -apple-system,BlinkMacSystemFont,"PingFang SC",sans-serif;fill:#26352f;text-anchor:middle}.temp{font:800 13px -apple-system,BlinkMacSystemFont,"PingFang SC",sans-serif;text-anchor:middle;paint-order:stroke;stroke:#fff;stroke-width:4px;stroke-linejoin:round}.dot{stroke:#fff;stroke-width:3}
    </style>
  </defs>
  <rect width="2040" height="430" rx="12" fill="#fff"/>
  <path fill="#fbfaf5" d="M14 8h224v408H14zM462 8h112v408H462zM798 8h224v408H798zM1246 8h336v408h-336zM1806 8h220v408h-220z"/>
  <path fill="#f1f6f3" d="M238 8h224v408H238zM574 8h224v408H574zM1022 8h224v408h-224zM1582 8h224v408h-224z"/>
  <path d="M238 8v408M462 8v408M574 8v408M798 8v408M1022 8v408M1246 8v408M1582 8v408M1806 8v408" stroke="#ced9d3" stroke-width="2"/>
  <g class="day">
    <text x="70" y="28">D1</text><text x="70" y="45">7/18</text><text x="182" y="28">D1</text><text x="182" y="45">7/18</text>
    <text x="294" y="28">D2</text><text x="294" y="45">7/19</text><text x="406" y="28">D2</text><text x="406" y="45">7/19</text>
    <text x="518" y="28">D3</text><text x="518" y="45">7/20</text><text x="630" y="28">D4</text><text x="630" y="45">7/21</text><text x="742" y="28">D4</text><text x="742" y="45">7/21</text>
    <text x="854" y="28">D5</text><text x="854" y="45">7/22</text><text x="966" y="28">D5</text><text x="966" y="45">7/22</text>
    <text x="1078" y="28">D6</text><text x="1078" y="45">7/23</text><text x="1190" y="28">D6</text><text x="1190" y="45">7/23</text>
    <text x="1302" y="28">D7</text><text x="1302" y="45">7/24</text><text x="1414" y="28">D7</text><text x="1414" y="45">7/24</text><text x="1526" y="28">D7</text><text x="1526" y="45">7/24</text>
    <text x="1638" y="28">D8</text><text x="1638" y="45">7/25</text><text x="1750" y="28">D8</text><text x="1750" y="45">7/25</text>
    <text x="1862" y="28">D9</text><text x="1862" y="45">7/26</text><text x="1974" y="28">D9</text><text x="1974" y="45">7/26</text>
  </g>
  <g>
    <use href="#sun" x="48" y="54" width="44" height="44"/><use href="#sun" x="160" y="54" width="44" height="44"/>
    <use href="#rain" x="272" y="54" width="44" height="44"/><use href="#sun" x="384" y="54" width="44" height="44"/>
    <use href="#rain" x="496" y="54" width="44" height="44"/><use href="#rain" x="608" y="54" width="44" height="44"/><use href="#rain" x="720" y="54" width="44" height="44"/>
    <use href="#sun" x="832" y="54" width="44" height="44"/><use href="#sun" x="944" y="54" width="44" height="44"/>
    <use href="#rain" x="1056" y="54" width="44" height="44"/><use href="#sun" x="1168" y="54" width="44" height="44"/>
    <use href="#rain" x="1280" y="54" width="44" height="44"/><use href="#cloud" x="1392" y="54" width="44" height="44"/><use href="#cloud" x="1504" y="54" width="44" height="44"/>
    <use href="#rain" x="1616" y="54" width="44" height="44"/><use href="#cloud" x="1728" y="54" width="44" height="44"/><use href="#rain" x="1840" y="54" width="44" height="44"/><use href="#rain" x="1952" y="54" width="44" height="44"/>
  </g>
  <polyline points="70,125 182,105 294,165 406,150 518,145 630,145 742,165 854,150 966,135 1078,155 1190,175 1302,165 1414,150 1526,145 1638,155 1750,105 1862,115 1974,115" fill="none" stroke="#d9831f" stroke-width="4" stroke-linecap="round" stroke-linejoin="round"/>
  <polyline points="70,205 182,185 294,235 406,230 518,225 630,220 742,245 854,235 966,230 1078,225 1190,235 1302,225 1414,225 1526,215 1638,215 1750,185 1862,175 1974,170" fill="none" stroke="#2774b8" stroke-width="4" stroke-linecap="round" stroke-linejoin="round"/>
  <g fill="#d9831f"><circle class="dot" cx="70" cy="125" r="5"/><circle class="dot" cx="182" cy="105" r="5"/><circle class="dot" cx="294" cy="165" r="5"/><circle class="dot" cx="406" cy="150" r="5"/><circle class="dot" cx="518" cy="145" r="5"/><circle class="dot" cx="630" cy="145" r="5"/><circle class="dot" cx="742" cy="165" r="5"/><circle class="dot" cx="854" cy="150" r="5"/><circle class="dot" cx="966" cy="135" r="5"/><circle class="dot" cx="1078" cy="155" r="5"/><circle class="dot" cx="1190" cy="175" r="5"/><circle class="dot" cx="1302" cy="165" r="5"/><circle class="dot" cx="1414" cy="150" r="5"/><circle class="dot" cx="1526" cy="145" r="5"/><circle class="dot" cx="1638" cy="155" r="5"/><circle class="dot" cx="1750" cy="105" r="5"/><circle class="dot" cx="1862" cy="115" r="5"/><circle class="dot" cx="1974" cy="115" r="5"/></g>
  <g fill="#2774b8"><circle class="dot" cx="70" cy="205" r="5"/><circle class="dot" cx="182" cy="185" r="5"/><circle class="dot" cx="294" cy="235" r="5"/><circle class="dot" cx="406" cy="230" r="5"/><circle class="dot" cx="518" cy="225" r="5"/><circle class="dot" cx="630" cy="220" r="5"/><circle class="dot" cx="742" cy="245" r="5"/><circle class="dot" cx="854" cy="235" r="5"/><circle class="dot" cx="966" cy="230" r="5"/><circle class="dot" cx="1078" cy="225" r="5"/><circle class="dot" cx="1190" cy="235" r="5"/><circle class="dot" cx="1302" cy="225" r="5"/><circle class="dot" cx="1414" cy="225" r="5"/><circle class="dot" cx="1526" cy="215" r="5"/><circle class="dot" cx="1638" cy="215" r="5"/><circle class="dot" cx="1750" cy="185" r="5"/><circle class="dot" cx="1862" cy="175" r="5"/><circle class="dot" cx="1974" cy="170" r="5"/></g>
  <g class="temp" fill="#d9831f"><text x="70" y="115">27°</text><text x="182" y="95">31°</text><text x="294" y="155">19°</text><text x="406" y="140">22°</text><text x="518" y="135">23°</text><text x="630" y="135">23°</text><text x="742" y="155">19°</text><text x="854" y="140">22°</text><text x="966" y="125">25°</text><text x="1078" y="145">21°</text><text x="1190" y="165">17°</text><text x="1302" y="155">19°</text><text x="1414" y="140">22°</text><text x="1526" y="135">23°</text><text x="1638" y="145">21°</text><text x="1750" y="95">31°</text><text x="1862" y="105">29°</text><text x="1974" y="105">29°</text></g>
  <g class="temp" fill="#2774b8"><text x="70" y="225">11°</text><text x="182" y="205">15°</text><text x="294" y="255">5°</text><text x="406" y="250">6°</text><text x="518" y="245">7°</text><text x="630" y="240">8°</text><text x="742" y="265">3°</text><text x="854" y="255">5°</text><text x="966" y="250">6°</text><text x="1078" y="245">7°</text><text x="1190" y="255">5°</text><text x="1302" y="245">7°</text><text x="1414" y="245">7°</text><text x="1526" y="235">9°</text><text x="1638" y="235">9°</text><text x="1750" y="205">15°</text><text x="1862" y="195">17°</text><text x="1974" y="190">18°</text></g>
  <g class="meta"><text x="70" y="286">晴 · 西北风2级</text><text x="182" y="286">晴 · 西风3级</text><text x="294" y="286">小雨 · 西北风2级</text><text x="406" y="286">晴 · 东北风2级</text><text x="518" y="286">小雨 · 东北风3级</text><text x="630" y="286">小雨 · 东北风3级</text><text x="742" y="286">小雨 · 西北风3级</text><text x="854" y="286">晴 · 西北风3级</text><text x="966" y="286">晴 · 东北风3级</text><text x="1078" y="286">小雨 · 东北风3级</text><text x="1190" y="286">晴 · 东风2级</text><text x="1302" y="286">小雨 · 东南风2级</text><text x="1414" y="286">多云 · 东北风3级</text><text x="1526" y="286">多云 · 南风2级</text><text x="1638" y="286">小雨 · 东风2级</text><text x="1750" y="286">阴 · 东北风2级</text><text x="1862" y="286">小雨 · 东北风2级</text><text x="1974" y="286">小雨 · 东南风2级</text></g>
  <g class="place">
    <text x="70" y="338"><tspan x="70">中川机场</tspan><tspan x="70" dy="17">（永登）</tspan></text><text x="182" y="338"><tspan x="182">兰州市区</tspan><tspan x="182" dy="17">博物馆 / 中山桥</tspan></text>
    <text x="294" y="338"><tspan x="294">美仁大草原</tspan><tspan x="294" dy="17">合作佛阁</tspan><tspan x="294" dy="17">（夏河近邻）</tspan></text><text x="406" y="338"><tspan x="406">扎古录镇</tspan><tspan x="406" dy="17">（卓尼）</tspan></text>
    <text x="518" y="338"><tspan x="518">达日观景台</tspan><tspan x="518" dy="17">扎尕那（迭部）</tspan></text><text x="630" y="338"><tspan x="630">扎尕那仙女滩</tspan><tspan x="630" dy="17">（迭部）</tspan></text><text x="742" y="338"><tspan x="742">格尔底寺 / 纳摩峡谷</tspan><tspan x="742" dy="17">郎木寺镇（碌曲）</tspan></text>
    <text x="854" y="338"><tspan x="854">花湖湿地</tspan><tspan x="854" dy="17">黄河九曲（若尔盖）</tspan></text><text x="966" y="338">阿坝县</text>
    <text x="1078" y="338"><tspan x="1078">莲宝叶则 / 各莫寺</tspan><tspan x="1078" dy="17">（阿坝）</tspan></text><text x="1190" y="338">久治县</text>
    <text x="1302" y="338"><tspan x="1302">娘玛寺 / 阿万仓</tspan><tspan x="1302" dy="17">（玛曲）</tspan></text><text x="1414" y="338"><tspan x="1414">郭莽湿地</tspan><tspan x="1414" dy="17">（碌曲）</tspan></text><text x="1526" y="338"><tspan x="1526">桑科草原 / 夏河县</tspan><tspan x="1526" dy="17">（夏河）</tspan></text>
    <text x="1638" y="338"><tspan x="1638">拉卜楞寺 / 甘加秘境</tspan><tspan x="1638" dy="17">（夏河）</tspan></text><text x="1750" y="338">临夏市</text><text x="1862" y="338"><tspan x="1862">黄洮交汇</tspan><tspan x="1862" dy="17">（临夏参考）</tspan></text><text x="1974" y="338"><tspan x="1974">中川机场 T3</tspan><tspan x="1974" dy="17">（永登）</tspan></text>
  </g>
  <text x="18" y="408" font-family="-apple-system,BlinkMacSystemFont,'PingFang SC',sans-serif" font-size="11" fill="#74817c">数据：墨迹天气区县预报 · 合并景点取最高温最大值 / 最低温最小值</text>
</svg>
